<svg width="11" height="11" viewBox="0 0 11 11" fill="none" xmlns="http://www.w3.org/2000/svg">
<path d="M7.20343 0.61792H9.73448C10.0861 0.61792 10.3848 0.750509 10.6309 1.01561C10.877 1.28077 11 1.60271 11 1.98158V4.70879C11 5.08763 10.877 5.40953 10.6309 5.67463C10.3849 5.93971 10.086 6.07235 9.73448 6.07235H8.25807C8.08236 6.07235 7.93292 6.13867 7.80988 6.27121C7.68683 6.40367 7.62533 6.56475 7.62533 6.75423V6.98137C7.62533 7.4833 7.79014 7.91166 8.11967 8.26684C8.44922 8.62185 8.84685 8.79942 9.3127 8.79942H9.73448C9.8488 8.79942 9.94763 8.84452 10.0312 8.93442C10.1146 9.02432 10.1564 9.13089 10.1564 9.254V10.1632C10.1564 10.2861 10.1146 10.3929 10.0312 10.4828C9.94756 10.5727 9.84882 10.6178 9.73448 10.6178H9.31268C8.85564 10.6178 8.41953 10.5218 8.00426 10.3301C7.58901 10.1384 7.22982 9.87906 6.92661 9.55234C6.62347 9.22559 6.38287 8.83862 6.20492 8.39115C6.027 7.9437 5.938 7.47379 5.938 6.9814V1.98148C5.938 1.60261 6.06105 1.28069 6.30708 1.01559C6.5531 0.750485 6.85195 0.61792 7.20343 0.61792Z" fill="#F6762C"/>
<path d="M0.40105 1.01561C0.647053 0.750509 0.945853 0.61792 1.29743 0.61792H3.82837C4.17994 0.61792 4.47872 0.750509 4.72475 1.01561C4.97075 1.28079 5.09375 1.60271 5.09375 1.98158V4.70879C5.09375 5.08763 4.97075 5.40953 4.72475 5.67463C4.47872 5.93971 4.17992 6.07235 3.82837 6.07235H2.35196C2.17626 6.07235 2.02671 6.13867 1.90368 6.27121C1.78077 6.40375 1.71914 6.56475 1.71914 6.75423V6.98137C1.71914 7.4833 1.88394 7.91166 2.21354 8.26684C2.54307 8.62185 2.9406 8.79942 3.4065 8.79942H3.82837C3.9426 8.79942 4.04152 8.84452 4.12495 8.93442C4.20845 9.02432 4.25026 9.13089 4.25026 9.254V10.1632C4.25026 10.2861 4.20845 10.3929 4.12495 10.4828C4.04154 10.5727 3.94262 10.6178 3.82837 10.6178H3.4065C2.94954 10.6178 2.51345 10.5218 2.09813 10.3301C1.68296 10.1384 1.32381 9.87906 1.02058 9.55234C0.717372 9.22559 0.476633 8.83852 0.298803 8.39115C0.120904 7.9438 0.0318619 7.47379 0.0318619 6.9814V1.98148C0.0319311 1.60261 0.154863 1.28069 0.40105 1.01561Z" fill="#F6762C"/>
</svg>
