<svg width="52" height="48" viewBox="0 0 52 48" fill="none" xmlns="http://www.w3.org/2000/svg">
<path d="M42.2002 42H13.7002C11.2188 42 9.2002 39.9814 9.2002 37.5C9.2002 35.0186 11.2188 33 13.7002 33H18.2002L15.4961 36H13.7002C12.8726 36 12.2002 36.6724 12.2002 37.5C12.2002 38.3276 12.8726 39 13.7002 39H42.2002V42Z" fill="#F9C2D2"/>
<path d="M28.7002 39H42.2002V42H28.7002V39Z" fill="#F98AAB"/>
<path opacity="0.5" d="M10.8379 15.0006L9.4974 9H0V6H11.9026L14.5013 17.6367L10.8379 15.0006Z" fill="#F98AAB"/>
<path d="M35.1438 15.5142L34.6956 15H10.8435L15.4988 36H41.8645L47.1511 15.542C46.1243 15.7986 40.0493 21.1499 35.1438 15.5142ZM42.6907 20.811L41.8667 24H34.8323L35.2137 19.4238C37.4136 20.7645 40.1173 21.2977 42.6907 20.811ZM25.5824 24L25.0823 18H32.3234L31.8233 24H25.5824ZM31.5734 27L31.0733 33H26.3323L25.8322 27H31.5734ZM22.0734 18L22.5735 24H15.9119L14.5818 18H22.0734ZM16.5769 27H22.8234L23.3235 33H17.9071L16.5769 27ZM34.0824 33L34.5825 27H41.0917L39.5413 33H34.0824Z" fill="#F9C2D2"/>
<path d="M35.1411 15.5142L34.6929 15H28.7002V18H32.3207L31.8206 24H28.7002V27H31.5707L31.0706 33H28.7002V36H41.8618L47.1484 15.542C46.1216 15.7985 40.0467 21.1498 35.1411 15.5142ZM39.5386 33H34.0797L34.5798 27H41.089L39.5386 33ZM42.688 20.811L41.864 24H34.8296L35.211 19.4238C37.4109 20.7645 40.1146 21.2977 42.688 20.811Z" fill="#F98AAB"/>
<path d="M19.7 48C17.2186 48 15.2 45.9814 15.2 43.5C15.2 41.0186 17.2186 39 19.7 39C22.1814 39 24.2 41.0186 24.2 43.5C24.2 45.9814 22.1814 48 19.7 48Z" fill="#665151"/>
<path d="M34.7 48C32.2186 48 30.2 45.9814 30.2 43.5C30.2 41.0186 32.2186 39 34.7 39C37.1814 39 39.2 41.0186 39.2 43.5C39.2 45.9814 37.1814 48 34.7 48Z" fill="#4D3535"/>
<path d="M40.7 21C34.75 21 30.2 16.1388 30.2 10.5C30.2 4.7109 34.9109 0 40.7 0C46.4891 0 51.2 4.7109 51.2 10.5C51.2 16.4299 46.3832 21 40.7 21Z" fill="#F9C2D2"/>
<path d="M19.7002 45C20.5286 45 21.2002 44.3284 21.2002 43.5C21.2002 42.6716 20.5286 42 19.7002 42C18.8718 42 18.2002 42.6716 18.2002 43.5C18.2002 44.3284 18.8718 45 19.7002 45Z" fill="#FFF7E6"/>
<path d="M34.7002 45C35.5286 45 36.2002 44.3284 36.2002 43.5C36.2002 42.6716 35.5286 42 34.7002 42C33.8718 42 33.2002 42.6716 33.2002 43.5C33.2002 44.3284 33.8718 45 34.7002 45Z" fill="#FFEACC"/>
<path d="M51.2002 10.5C51.2002 4.7109 46.4893 0 40.7002 0V21C46.3834 21 51.2002 16.4299 51.2002 10.5Z" fill="#F98AAB"/>
<path d="M45.2002 9H42.2002V6H39.2002V9H36.2002V12H39.2002V15H42.2002V12H45.2002V9Z" fill="white"/>
<path d="M40.7002 6V15H42.2002V12H45.2002V9H42.2002V6H40.7002Z" fill="white"/>
</svg>
